<svg width="32" height="32" viewBox="0 0 32 32" fill="none" xmlns="http://www.w3.org/2000/svg">
<g clip-path="url(#clip0_93_2)">
<path d="M16 29C13.4288 29 10.9154 28.2376 8.77759 26.8091C6.63975 25.3807 4.97351 23.3503 3.98957 20.9749C3.00563 18.5995 2.74819 15.9856 3.2498 13.4638C3.75141 10.9421 4.98953 8.6257 6.80762 6.80762C8.6257 4.98953 10.9421 3.75141 13.4638 3.2498C15.9856 2.74819 18.5995 3.00563 20.9749 3.98957C23.3503 4.97351 25.3807 6.63975 26.8091 8.77759C28.2376 10.9154 29 13.4288 29 16C29 19.4478 27.6304 22.7544 25.1924 25.1924C22.7544 27.6304 19.4478 29 16 29ZM16 5.00001C13.8244 5.00001 11.6977 5.64514 9.88873 6.85384C8.07979 8.06254 6.66989 9.7805 5.83733 11.7905C5.00477 13.8005 4.78693 16.0122 5.21137 18.146C5.63581 20.2798 6.68345 22.2398 8.22183 23.7782C9.76021 25.3166 11.7202 26.3642 13.854 26.7886C15.9878 27.2131 18.1995 26.9952 20.2095 26.1627C22.2195 25.3301 23.9375 23.9202 25.1462 22.1113C26.3549 20.3023 27 18.1756 27 16C27 13.0826 25.8411 10.2847 23.7782 8.22183C21.7153 6.15893 18.9174 5.00001 16 5.00001Z" fill="#6563FF"/>
<path d="M11.7601 21.24C11.6285 21.2407 11.498 21.2155 11.3762 21.1657C11.2543 21.116 11.1435 21.0426 11.0501 20.95C10.8638 20.7626 10.7593 20.5092 10.7593 20.245C10.7593 19.9808 10.8638 19.7273 11.0501 19.54L19.5401 11.05C19.6327 10.9541 19.7432 10.8774 19.8654 10.8243C19.9877 10.7711 20.1191 10.7426 20.2524 10.7403C20.3856 10.7379 20.518 10.7619 20.642 10.8107C20.766 10.8596 20.8792 10.9324 20.9751 11.025C21.0709 11.1175 21.1476 11.2281 21.2008 11.3503C21.2539 11.4725 21.2824 11.604 21.2848 11.7373C21.2871 11.8705 21.2631 12.0029 21.2143 12.1269C21.1654 12.2509 21.0927 12.3641 21.0001 12.46L12.4601 21C12.266 21.1665 12.0155 21.2524 11.7601 21.24Z" fill="#6563FF"/>
<path d="M20.24 21.24C19.9777 21.2389 19.7263 21.1348 19.54 20.95L11.05 12.46C10.8862 12.2687 10.8006 12.0227 10.8103 11.771C10.82 11.5193 10.9244 11.2806 11.1025 11.1025C11.2806 10.9244 11.5193 10.82 11.771 10.8103C12.0227 10.8006 12.2687 10.8862 12.46 11.05L21 19.54C21.0999 19.6336 21.1796 19.7466 21.234 19.8722C21.2885 19.9978 21.3166 20.1332 21.3166 20.27C21.3166 20.4069 21.2885 20.5423 21.234 20.6679C21.1796 20.7934 21.0999 20.9065 21 21C20.8966 21.09 20.7757 21.1577 20.645 21.199C20.5142 21.2403 20.3764 21.2543 20.24 21.24Z" fill="#6563FF"/>
</g>
<defs>
<clipPath id="clip0_93_2">
<rect width="32" height="32" fill="white"/>
</clipPath>
</defs>
</svg>
